<svg xmlns="http://www.w3.org/2000/svg" viewBox="0 0 763 484.01"><defs><style>.cls-1{fill:#c3f4d0;}.cls-1,.cls-10,.cls-9{stroke:#000;}.cls-1,.cls-10,.cls-12,.cls-13,.cls-14,.cls-15,.cls-16,.cls-18,.cls-2,.cls-20,.cls-3,.cls-4,.cls-5,.cls-6,.cls-7,.cls-8,.cls-9{stroke-miterlimit:10;}.cls-2{fill:#ff777c;}.cls-12,.cls-13,.cls-15,.cls-16,.cls-18,.cls-2,.cls-3,.cls-4,.cls-5,.cls-6,.cls-7,.cls-8{stroke:#fff;}.cls-3{fill:#f2f2f2;}.cls-4{fill:#fbb03b;}.cls-5{fill:#8aa1fd;}.cls-6{fill:#fdf14d;}.cls-7{fill:#d1b0bd;}.cls-8{fill:#1a1a1a;}.cls-20,.cls-9{fill:none;}.cls-11{fill:#fdf57a;}.cls-12{fill:#b8dea0;}.cls-13{fill:#ffcade;}.cls-14{fill:#99f8f1;}.cls-14,.cls-20{stroke:#1a1a1a;}.cls-16{fill:#a4a1c1;}.cls-17,.cls-18{fill:#333;}.cls-19{fill:#fff;}.cls-20{stroke-linecap:round;}</style></defs><g id="Layer_2" data-name="Layer 2"><g id="cassette"><path id="cassette_border" data-name="cassette border" class="cls-1" d="M23.5.51h718s16-1,21,18v444s-1,18-20,21H21.17s-20.67-2-20.67-22V22.8S1.5,1.51,23.5.51Z"/><path class="cls-2" d="M698.5,29.51H64.5l-34.82,36v299H733.5v-299Zm-656,323v-279l30-33h616l32.24,33,2.76,279Z"/><polygon class="cls-3" points="723.5 352.51 42.5 352.51 42.5 73.51 72.5 40.51 688.5 40.51 720.74 73.51 723.5 352.51"/><rect id="middle_square" data-name="middle square" class="cls-4" x="367.5" y="40.51" width="113.24" height="111"/><polygon id="right_rect" data-name="right rect" class="cls-5" points="494.5 60.51 676.32 60.51 703.5 86.51 703.5 139.39 492.49 139.39 494.5 60.51"/><polygon id="left_rect" data-name="left rect" class="cls-6" points="60.5 86.51 87.04 60.51 356.5 62.51 356.5 139.39 60.5 140.92 60.5 86.51"/><rect id="inside_left_rect" data-name="inside left rect" class="cls-7" x="89.5" y="78.51" width="231.59" height="29.56"/><path class="cls-8" d="M549,173.51A44.5,44.5,0,1,0,593.5,218,44.5,44.5,0,0,0,549,173.51Zm22.5,76-6-11-10,6,5.59,10c-14.42,4-24.59,0-24.59,0l5-10-9-5-5,10c-17-13-16.46-26-16.46-26H522.5l0-11h-12c4-20,16-25,16-25L532,197l10.52-5.5-5.41-10c10.58-4,24.41,0,24.41,0l-5,10,10,6,5-10c13,7,15,25.24,15,25.24l-11-.24v12h11C584.5,238.51,571.5,249.51,571.5,249.51Z"/><path class="cls-9" d="M575.5,224.51h11c-2,14-15,25-15,25l-6-11-10,6,5.59,10c-14.42,4-24.59,0-24.59,0l5-10-9-5-5,10c-17-13-16.46-26-16.46-26H522.5l0-11h-12c4-20,16-25,16-25L532,197l10.52-5.5-5.41-10c10.58-4,24.41,0,24.41,0l-5,10,10,6,5-10c13,7,15,25.24,15,25.24l-11-.24Z"/><path class="cls-9" d="M575.5,224.51h11c-2,14-15,25-15,25l-6-11-10,6,5.59,10c-14.42,4-24.59,0-24.59,0l5-10-9-5-5,10c-17-13-16.46-26-16.46-26H522.5l0-11h-12c4-20,16-25,16-25L532,197l10.52-5.5-5.41-10c10.58-4,24.41,0,24.41,0l-5,10,10,6,5-10c13,7,15,25.24,15,25.24l-11-.24Z"/><path id="wheelcase" class="cls-10" d="M216.5,167.51a50,50,0,1,0,50,50A50,50,0,0,0,216.5,167.51Zm.5,94A44.5,44.5,0,1,1,261.5,217,44.5,44.5,0,0,1,217,261.51Z"/><path class="cls-11" d="M243.5,223.51h11c-2,14-15,25-15,25l-6-11-10,6,5.59,10c-14.42,4-24.59,0-24.59,0l5-10-9-5-5,10c-17-13-16.46-26-16.46-26H190.5l-.05-11H178.5c4-20,16-25,16-25L200,196l10.52-5.5-5.41-10c10.58-4,24.41,0,24.41,0l-5,10,10,6,5-10c13,7,15,25.24,15,25.24l-11-.24Z"/><g id="window_loop" data-name="window loop"><path class="cls-12" d="M550,152.51H214a65.5,65.5,0,0,0,0,131H550a65.5,65.5,0,0,0,0-131Zm-1,125H213A58.67,58.67,0,0,1,154.5,219v-2a58.67,58.67,0,0,1,58.5-58.5H549A58.67,58.67,0,0,1,607.5,217v2A58.67,58.67,0,0,1,549,277.51Z"/></g><path class="cls-13" d="M42.5,182.73l115,1.78s-26.5,30.68,6,76H42.5Z"/><rect class="cls-14" x="55.5" y="208.51" width="80.39" height="27.84"/><g id="left_tape_round" data-name="left tape round"><path class="cls-15" d="M548.5,168.51a50,50,0,1,0,50,50A50,50,0,0,0,548.5,168.51Zm.5,94A44.5,44.5,0,1,1,593.5,218,44.5,44.5,0,0,1,549,262.51Z"/><circle class="cls-15" cx="549" cy="218.01" r="44.5"/><circle class="cls-15" cx="549" cy="218.01" r="44.5"/></g><path class="cls-13" d="M721.81,180.91H603.9s26.37,36.06-3.52,78.83l121.43,2.77Z"/><rect class="cls-14" x="630.5" y="205.51" width="79.69" height="27.16"/><path id="bottom_lip" data-name="bottom lip" class="cls-16" d="M42.5,289.86V260.19H164s17.47,22.33,42,22.82,345.22.49,345.22.49,27.06,1.47,49.17-23.76l121.43,2.08,1.06,27.31Z"/><path class="cls-17" d="M100.15,483.51l27.14-105.32a18.55,18.55,0,0,1,11-12.72,21.43,21.43,0,0,1,3.17-1h481.4s7.67,1,11.67,7,28.71,112,28.71,112H649.43l-22.93-108s-1-6-10-5l-470.42-1a7.79,7.79,0,0,0-5.79,2.48,17.28,17.28,0,0,0-3.79,7.52l-22.22,104Z"/><path class="cls-11" d="M575.5,224.51h11c-2,14-15,25-15,25l-6-11-10,6,5.59,10c-14.42,4-24.59,0-24.59,0l5-10-9-5-5,10c-17-13-16.46-26-16.46-26H522.5l0-11h-12c4-20,16-25,16-25L532,197l10.52-5.5-5.41-10c10.58-4,24.41,0,24.41,0l-5,10,10,6,5-10c13,7,15,25.24,15,25.24l-11-.24Z"/><circle class="cls-18" cx="39.5" cy="457.51" r="13"/><circle class="cls-18" cx="721.5" cy="457.51" r="13"/><circle class="cls-18" cx="141" cy="473.01" r="7.5"/><circle class="cls-18" cx="627" cy="473.01" r="7.5"/><g id="wheeltrackleft"><path id="wheeltrackleft-2" data-name="wheeltrackleft" class="cls-8" d="M217,172.51A44.5,44.5,0,1,0,261.5,217,44.5,44.5,0,0,0,217,172.51Zm22.5,76-6-11-10,6,5.59,10c-14.42,4-24.59,0-24.59,0l5-10-9-5-5,10c-17-13-16.46-26-16.46-26H190.5l-.05-11H178.5c4-20,16-25,16-25L200,196l10.52-5.5-5.41-10c10.58-4,24.41,0,24.41,0l-5,10,10,6,5-10c13,7,15,25.24,15,25.24l-11-.24v12h11C252.5,237.51,239.5,248.51,239.5,248.51Z"/><g id="innerwheelleft"><circle class="cls-19" cx="216.5" cy="216.51" r="8.5"/><line class="cls-20" x1="219.5" y1="213.51" x2="214.5" y2="219.51"/><line class="cls-20" x1="214.5" y1="213.51" x2="219.5" y2="219.51"/></g></g><g id="wheeltrackright"><path id="wheeltrackright-2" data-name="wheeltrackright" class="cls-8" d="M549,173.51A44.5,44.5,0,1,0,593.5,218,44.5,44.5,0,0,0,549,173.51Zm22.5,76-6-11-10,6,5.59,10c-14.42,4-24.59,0-24.59,0l5-10-9-5-5,10c-17-13-16.46-26-16.46-26H522.5l0-11h-12c4-20,16-25,16-25L532,197l10.52-5.5-5.41-10c10.58-4,24.41,0,24.41,0l-5,10,10,6,5-10c13,7,15,25.24,15,25.24l-11-.24v12h11C584.5,238.51,571.5,249.51,571.5,249.51Z"/><g id="innerwheel_right" data-name="innerwheel right"><circle class="cls-19" cx="548.5" cy="218.51" r="8.5"/><line class="cls-20" x1="550.78" y1="215.39" x2="545.78" y2="221.39"/><line class="cls-20" x1="545.78" y1="215.39" x2="550.78" y2="221.39"/></g></g></g></g></svg>